<svg width="45" height="38" viewBox="0 0 45 38" fill="none" xmlns="http://www.w3.org/2000/svg">
<g clip-path="url(#clip0_124_373)">
<path d="M32.4058 5.09592V2.57521H17.8225V5.09592H23.6558V7.61663H17.8225V22.7409H23.6558V25.2616H17.8225V27.7823H32.4058V25.2616H26.5725V22.7409H32.4058V7.61663H26.5725V5.09592H32.4058ZM20.7392 20.2202V16.4391H29.4891V20.2202H20.7392ZM29.4891 13.9184H20.7392V10.1373H29.4891V13.9184Z" fill="#8E0985" stroke="#8E0985" stroke-width="0.686272"/>
<path d="M44.0724 35.3445H6.15591C5.38237 35.3445 4.64051 35.0789 4.09353 34.6062C3.54655 34.1335 3.23926 33.4923 3.23926 32.8238V0.0544968H6.15591V32.8238H44.0724V35.3445Z" fill="#8E0985" stroke="#8E0985" stroke-width="0.686272"/>
</g>
<defs>
<clipPath id="clip0_124_373">
<rect width="43.9214" height="37.5815" fill="white" transform="translate(0.322601 0.283649)"/>
</clipPath>
</defs>
</svg>
