<svg width="45" height="47" viewBox="0 0 45 47" fill="none" xmlns="http://www.w3.org/2000/svg">
<path d="M25.8004 19.6241C25.8004 20.4193 26.4283 21.064 27.2028 21.064H28.4917L24.7286 24.9281C24.5459 25.1155 24.2501 25.1155 24.0674 24.9281L21.1022 21.8835C19.8244 20.5714 17.7526 20.5714 16.4747 21.8835L12.1873 26.2857C11.6397 26.848 11.6397 27.7596 12.1873 28.3219C12.735 28.8843 13.6229 28.8843 14.1706 28.3219L18.4579 23.9197C18.6405 23.7324 18.9364 23.7324 19.1191 23.9197L22.0843 26.9644C23.3621 28.2764 25.4339 28.2764 26.7118 26.9644L30.475 23.1005V24.4239C30.475 25.2191 31.1029 25.8639 31.8774 25.8639C32.6519 25.8639 33.2798 25.2191 33.2798 24.4239V19.6241C33.2798 18.8288 32.6519 18.1841 31.8774 18.1841H27.2028C26.4283 18.1841 25.8004 18.8288 25.8004 19.6241Z" fill="#126AED"/>
<path fill-rule="evenodd" clip-rule="evenodd" d="M22.4208 2.82473C18.1045 2.82471 14.7219 2.82469 12.0827 3.18904C9.38122 3.56196 7.24957 4.34019 5.57641 6.05816C3.90326 7.77613 3.14534 9.96488 2.78214 12.7387C2.4273 15.4486 2.42732 18.9218 2.42734 23.3537V23.5742C2.42732 28.0061 2.4273 31.4793 2.78214 34.1892C3.14534 36.963 3.90326 39.1519 5.57641 40.8698C7.24957 42.5878 9.38122 43.3659 12.0827 43.739C14.7219 44.1032 18.1045 44.1032 22.4208 44.1032H22.6355C26.9518 44.1032 30.3344 44.1032 32.9736 43.739C35.675 43.3659 37.8068 42.5878 39.4799 40.8698C41.1531 39.1519 41.9109 36.963 42.2742 34.1892C42.6289 31.4793 42.6289 28.0061 42.6289 23.5742V23.3537C42.6289 18.9218 42.6289 15.4486 42.2742 12.7387C41.9109 9.96488 41.1531 7.77613 39.4799 6.05816C37.8068 4.34019 35.675 3.56196 32.9736 3.18904C30.3344 2.82469 26.9518 2.82471 22.6355 2.82473H22.4208ZM7.55968 8.09455C8.62484 7.00084 10.066 6.37324 12.4564 6.04324C14.8871 5.70768 18.0812 5.70462 22.5281 5.70462C26.975 5.70462 30.1691 5.70768 32.5999 6.04324C34.9903 6.37324 36.4314 7.00084 37.4966 8.09455C38.5618 9.18824 39.1731 10.668 39.4943 13.1224C39.8212 15.6183 39.8242 18.8979 39.8242 23.4639C39.8242 28.0299 39.8212 31.3095 39.4943 33.8054C39.1731 36.2599 38.5618 37.7396 37.4966 38.8333C36.4314 39.9271 34.9903 40.5548 32.5999 40.8846C30.1691 41.2202 26.975 41.2233 22.5281 41.2233C18.0812 41.2233 14.8871 41.2202 12.4564 40.8846C10.066 40.5548 8.62484 39.9271 7.55968 38.8333C6.49451 37.7396 5.88327 36.2599 5.56188 33.8054C5.23507 31.3095 5.2321 28.0299 5.2321 23.4639C5.2321 18.8979 5.23507 15.6183 5.56188 13.1224C5.88327 10.668 6.49451 9.18824 7.55968 8.09455Z" fill="#126AED"/>
</svg>
