<svg xmlns="http://www.w3.org/2000/svg" fill="none" viewBox="3.25 2.33 114.81 21.33">
<path d="M32.008 20.624L31.912 21.6C31.6133 21.728 31.2507 21.84 30.824 21.936C30.3973 22.032 29.9653 22.1013 29.528 22.144C29.0907 22.1973 28.7013 22.224 28.36 22.224C27.496 22.224 26.696 22.08 25.96 21.792C25.224 21.4933 24.5787 21.0827 24.024 20.56C23.48 20.0373 23.0533 19.424 22.744 18.72C22.4347 18.0053 22.28 17.232 22.28 16.4C22.28 15.568 22.4347 14.8 22.744 14.096C23.0533 13.3813 23.48 12.7627 24.024 12.24C24.5787 11.7173 25.224 11.312 25.96 11.024C26.696 10.7253 27.496 10.576 28.36 10.576C28.712 10.576 29.1067 10.6027 29.544 10.656C29.9813 10.7093 30.408 10.784 30.824 10.88C31.24 10.9653 31.592 11.0667 31.88 11.184L31.8 12.08H31.704C31.3093 11.7173 30.8133 11.44 30.216 11.248C29.6187 11.056 29 10.96 28.36 10.96C27.4 10.96 26.552 11.1893 25.816 11.648C25.0907 12.096 24.52 12.7307 24.104 13.552C23.6987 14.3627 23.496 15.312 23.496 16.4C23.496 17.4987 23.6987 18.4533 24.104 19.264C24.52 20.0747 25.0907 20.7093 25.816 21.168C26.5413 21.616 27.3893 21.84 28.36 21.84C29.0853 21.84 29.7573 21.7227 30.376 21.488C31.0053 21.2533 31.5173 20.9653 31.912 20.624H32.008ZM35.205 22V10.8H36.293V15.984H43.013V10.8H44.101V22H43.013V16.368H36.293V22H35.205ZM46.6035 22L50.9075 10.8H51.8995L56.2035 22H55.0355L53.0515 16.752H49.4195L47.7715 22H46.6035ZM51.0195 11.632L49.5315 16.368H52.9075L51.1155 11.632H51.0195ZM58.7988 10.8H60.9427C62.0734 10.8 62.9481 11.04 63.5668 11.52C64.1961 11.9893 64.5108 12.6507 64.5108 13.504C64.5108 14.1653 64.3134 14.7147 63.9188 15.152C63.5348 15.5893 62.9748 15.8827 62.2388 16.032V16.128C62.9428 16.2667 63.5188 16.5973 63.9668 17.12C64.4148 17.6427 64.7508 18.288 64.9748 19.056C65.1774 19.76 65.3748 20.3093 65.5668 20.704C65.7694 21.088 65.9881 21.3653 66.2228 21.536C66.4681 21.7067 66.7561 21.8293 67.0868 21.904V22H66.4308C65.9614 22 65.5721 21.9147 65.2628 21.744C64.9641 21.5733 64.7081 21.2853 64.4948 20.88C64.2814 20.4747 64.0788 19.9147 63.8868 19.2C63.5774 18.1013 63.1668 17.3227 62.6548 16.864C62.1428 16.4053 61.5188 16.176 60.7828 16.176H60.6868V15.888H60.7828C62.5001 15.888 63.3588 15.0987 63.3588 13.52C63.3588 11.9627 62.5534 11.184 60.9427 11.184H59.8868V22H58.7988V10.8ZM70.9056 22V11.12C70.7456 11.12 70.415 11.152 69.9136 11.216L66.7776 11.616V10.8H76.1216V11.616L72.9856 11.216C72.4843 11.152 72.1536 11.12 71.9936 11.12V22H70.9056ZM77.1526 10.8H78.3526L82.7206 20.752H82.8166L86.4806 10.8H87.6806L82.5926 22.224H82.2406L77.1526 10.8ZM90.1738 22V10.8H91.2618V22H90.1738ZM95.4238 22V10.8H100.304V11.584L97.5038 11.216C97.0131 11.152 96.6824 11.12 96.5118 11.12V16C96.6504 16 96.9811 15.984 97.5038 15.952L100.128 15.792V16.528L97.5038 16.368C96.9811 16.336 96.6504 16.32 96.5118 16.32V21.68C96.7038 21.68 97.0398 21.648 97.5198 21.584L100.352 21.216V22H95.4238ZM102.137 10.8H103.305L107.225 20.592H107.321L109.881 14.256L108.489 10.8H109.657L113.561 20.56H113.657L116.889 10.8H118.057L113.449 22.224H113.097L110.105 14.784L107.097 22.224H106.745L102.137 10.8Z" fill="white"/>
<path d="M15.75 21.6667V10.8333M10.5 21.6667V4.33333M5.25 21.6667V15.1667" stroke="#B3B3B3" stroke-width="4" stroke-linecap="round" stroke-linejoin="round"/>
</svg>