<svg width="46" height="47" viewBox="0 0 46 47" fill="none" xmlns="http://www.w3.org/2000/svg">
<path d="M6.53258 25.3947C6.53258 24.8855 6.72958 24.3971 7.08024 24.0371C7.4309 23.677 7.90651 23.4747 8.40242 23.4747H15.8818C16.3777 23.4747 16.8533 23.677 17.204 24.0371C17.5546 24.3971 17.7516 24.8855 17.7516 25.3947V36.9142C17.7516 37.4234 17.5546 37.9118 17.204 38.2718C16.8533 38.6319 16.3777 38.8341 15.8818 38.8341H8.40242C7.90651 38.8341 7.4309 38.6319 7.08024 38.2718C6.72958 37.9118 6.53258 37.4234 6.53258 36.9142V25.3947Z" stroke="#0ECA2A" stroke-width="1.90963" stroke-linecap="round" stroke-linejoin="round"/>
<path d="M17.7516 17.7149C17.7516 17.2058 17.9486 16.7174 18.2993 16.3574C18.6499 15.9973 19.1255 15.795 19.6215 15.795H27.1008C27.5967 15.795 28.0723 15.9973 28.423 16.3574C28.7737 16.7174 28.9707 17.2058 28.9707 17.7149V36.9142C28.9707 37.4234 28.7737 37.9118 28.423 38.2718C28.0723 38.6319 27.5967 38.8341 27.1008 38.8341H19.6215C19.1255 38.8341 18.6499 38.6319 18.2993 38.2718C17.9486 37.9118 17.7516 37.4234 17.7516 36.9142V17.7149Z" stroke="#0ECA2A" stroke-width="1.90963" stroke-linecap="round" stroke-linejoin="round"/>
<path d="M28.9707 10.0352C28.9707 9.52604 29.1677 9.0377 29.5183 8.67764C29.869 8.31759 30.3446 8.11531 30.8405 8.11531H38.3199C38.8158 8.11531 39.2914 8.31759 39.642 8.67764C39.9927 9.0377 40.1897 9.52604 40.1897 10.0352V36.9142C40.1897 37.4234 39.9927 37.9118 39.642 38.2718C39.2914 38.6319 38.8158 38.8341 38.3199 38.8341H30.8405C30.3446 38.8341 29.869 38.6319 29.5183 38.2718C29.1677 37.9118 28.9707 37.4234 28.9707 36.9142V10.0352Z" stroke="#0ECA2A" stroke-width="1.90963" stroke-linecap="round" stroke-linejoin="round"/>
<path d="M8.40242 38.8341H34.5802" stroke="#0ECA2A" stroke-width="1.90963" stroke-linecap="round" stroke-linejoin="round"/>
</svg>
