<svg width="21" height="19" viewBox="0 0 21 19" fill="none" xmlns="http://www.w3.org/2000/svg">
<path d="M2 0C0.89543 0 0 0.89543 0 2V14.5C0 15.6046 0.89543 16.5 2 16.5H8C8.0146 16.5 8.0291 16.4999 8.0436 16.4997H9.1337C9.0487 16.3526 9 16.1819 9 15.9998V14.4957H7.85626L7.81868 14.4956V14.5H2V2H8C8.5523 2 9 2.44772 9 3V12.9998C9 12.4475 9.4477 11.9998 10 11.9998H11V3C11 2.44771 11.4477 2 12 2H18V9.1684C18.5971 8.8858 19.3295 8.9549 19.8703 9.4057C19.9127 9.441 19.956 9.479 20 9.5195V2C20 0.89543 19.1046 0 18 0H12C11.2316 0 10.5308 0.28885 10 0.7639C9.4692 0.28885 8.7684 0 8 0H2ZM19.2302 10.1739C19.4783 10.3806 19.815 10.7548 20.1432 11.3016C20.6793 12.1951 21 13.2644 21 14.5C21 15.7356 20.6793 16.8049 20.1432 17.6984C19.815 18.2453 19.4783 18.6194 19.2302 18.8262C18.912 19.0914 18.4391 19.0484 18.1739 18.7302C17.9087 18.4119 17.9517 17.939 18.2699 17.6739C18.3968 17.5681 18.6226 17.3173 18.8569 16.9266C19.2583 16.2576 19.5 15.4519 19.5 14.5C19.5 13.5481 19.2583 12.7424 18.8569 12.0734C18.6226 11.6828 18.3968 11.4319 18.2699 11.3262C17.9517 11.061 17.9087 10.5881 18.1739 10.2699C18.4391 9.9517 18.912 9.9087 19.2302 10.1739ZM17.2 11.65C17.3885 11.7914 17.635 12.0378 17.8741 12.3965C18.2651 12.983 18.5 13.6878 18.5 14.5C18.5 15.3122 18.2651 16.017 17.8741 16.6035C17.635 16.9622 17.3885 17.2087 17.2 17.35C16.8687 17.5985 16.3986 17.5314 16.15 17.2C15.9241 16.8988 15.9591 16.4829 16.2163 16.223L16.3 16.15C16.3616 16.1039 16.4901 15.9753 16.626 15.7715C16.86 15.4205 17 15.0003 17 14.5C17 13.9997 16.86 13.5795 16.626 13.2285C16.4901 13.0247 16.3616 12.8962 16.3 12.85C15.9687 12.6015 15.9015 12.1314 16.15 11.8C16.3986 11.4686 16.8687 11.4015 17.2 11.65ZM14.5138 11.048C14.8063 11.1579 15 11.4376 15 11.75V17.25C15 17.5625 14.8063 17.8422 14.5138 17.9521C14.2213 18.062 13.8913 17.9791 13.6856 17.7439L12.1597 16H10.75C10.3358 16 10 15.6642 10 15.25V13.75C10 13.3358 10.3358 13 10.75 13H12.1597L13.6856 11.2562C13.8913 11.021 14.2213 10.9381 14.5138 11.048Z" fill="white"/>
</svg>
