<svg width="21" height="22" viewBox="0 0 21 22" fill="none" xmlns="http://www.w3.org/2000/svg">
<path d="M10.5 19.8L9.625 17.1H3.5C3.01875 17.1 2.60677 16.9238 2.26406 16.5713C1.92135 16.2188 1.75 15.795 1.75 15.3V3.6C1.75 3.105 1.92135 2.68125 2.26406 2.32875C2.60677 1.97625 3.01875 1.8 3.5 1.8H8.75L9.51562 4.5H17.5C18.0104 4.5 18.4297 4.66875 18.7578 5.00625C19.0859 5.34375 19.25 5.775 19.25 6.3V18C19.25 18.495 19.0859 18.9188 18.7578 19.2713C18.4297 19.6238 18.0104 19.8 17.5 19.8H10.5ZM6.25625 13.14C7.2625 13.14 8.0901 12.8063 8.73906 12.1388C9.38802 11.4713 9.7125 10.605 9.7125 9.54C9.7125 9.42 9.70885 9.31125 9.70156 9.21375C9.69427 9.11625 9.67604 9.015 9.64688 8.91H6.19063V10.305H8.1375C8.02083 10.725 7.79844 11.0513 7.47031 11.2838C7.14219 11.5163 6.74479 11.6325 6.27813 11.6325C5.70938 11.6325 5.22083 11.4225 4.8125 11.0025C4.40417 10.5825 4.2 10.065 4.2 9.45C4.2 8.835 4.40417 8.3175 4.8125 7.8975C5.22083 7.4775 5.70938 7.2675 6.27813 7.2675C6.54063 7.2675 6.78854 7.31625 7.02187 7.41375C7.25521 7.51125 7.46667 7.6575 7.65625 7.8525L8.72813 6.795C8.42188 6.465 8.05365 6.21 7.62344 6.03C7.19323 5.85 6.7375 5.76 6.25625 5.76C5.27917 5.76 4.44427 6.11625 3.75156 6.82875C3.05885 7.54125 2.7125 8.415 2.7125 9.45C2.7125 10.485 3.05885 11.3588 3.75156 12.0713C4.44427 12.7838 5.27917 13.14 6.25625 13.14ZM12.1188 13.59L12.6 13.1175C12.3958 12.8625 12.2099 12.615 12.0422 12.375C11.8745 12.135 11.7104 11.88 11.55 11.61L12.1188 13.59ZM13.2125 12.4425C13.6208 11.9475 13.9307 11.475 14.1422 11.025C14.3536 10.575 14.4958 10.2225 14.5688 9.9675H11.0906L11.3531 10.9125H12.2281C12.3448 11.1375 12.4833 11.3813 12.6438 11.6438C12.8042 11.9063 12.9938 12.1725 13.2125 12.4425ZM11.375 18.9H17.5C17.7625 18.9 17.974 18.8138 18.1344 18.6413C18.2948 18.4688 18.375 18.255 18.375 18V6.3C18.375 6.03 18.2948 5.8125 18.1344 5.6475C17.974 5.4825 17.7625 5.4 17.5 5.4H9.77812L10.8063 9.045H12.5344V8.1H13.4313V9.045H16.625V9.9675H15.5094C15.3635 10.5375 15.1448 11.0925 14.8531 11.6325C14.5615 12.1725 14.2188 12.675 13.825 13.14L16.2094 15.5475L15.575 16.2L13.2125 13.77L12.425 14.6025L13.125 17.1L11.375 18.9Z" fill="white"/>
</svg>
